<?xml version="1.0" encoding="UTF-8"?>
<svg width="33px" height="38px" viewBox="0 0 33 38" version="1.1" xmlns="http://www.w3.org/2000/svg" xmlns:xlink="http://www.w3.org/1999/xlink">
    <!-- Generator: Sketch 49.1 (51147) - http://www.bohemiancoding.com/sketch -->
    <title>icon_notice</title>
    <desc>Created with Sketch.</desc>
    <defs></defs>
    <g id="current-desktop" stroke="none" stroke-width="1" fill="none" fill-rule="evenodd">
        <g id="digital-channels" transform="translate(-1056.000000, -517.000000)" fill="#FFFFFF">
            <g id="Group-5" transform="translate(1002.000000, 464.000000)">
                <path d="M85.3058036,77.5664062 C86.4352735,78.7044328 87,79.9661389 87,81.3515625 C87,82.6875067 86.5212101,83.8378858 85.5636161,84.8027344 C84.606022,85.7675829 83.439739,86.25 82.0647321,86.25 L75.2142857,86.25 C75.2142857,87.5859442 74.7600492,88.711584 73.8515625,89.6269531 C72.9430758,90.5423223 71.8258995,91 70.5,91 C69.1741005,91 68.0569242,90.5423223 67.1484375,89.6269531 C66.2399508,88.711584 65.7857143,87.5859442 65.7857143,86.25 L58.9352679,86.25 C57.560261,86.25 56.393978,85.7675829 55.4363839,84.8027344 C54.4787899,83.8378858 54,82.6875067 54,81.3515625 C54,79.9661389 54.5647265,78.7044328 55.6941964,77.5664062 C56.2343777,77.0221327 56.6272309,76.5520853 56.8727679,76.15625 C57.3147344,75.4635382 57.6339276,74.6224008 57.8303571,73.6328125 C58.0758941,72.3958271 58.1986607,70.837249 58.1986607,68.9570312 C58.1986607,66.9283753 58.6528972,65.0358161 59.5613839,63.2792969 C60.4698706,61.5227777 61.7098136,60.0631569 63.28125,58.9003906 C64.8526864,57.7376244 66.6205259,57.007814 68.5848214,56.7109375 C68.2901771,56.3151022 68.1428571,55.8697941 68.1428571,55.375 C68.1428571,54.7317676 68.3761137,54.1751326 68.8426339,53.7050781 C69.3091541,53.2350237 69.861604,53 70.5,53 C71.138396,53 71.6908459,53.2350237 72.1573661,53.7050781 C72.6238863,54.1751326 72.8571429,54.7317676 72.8571429,55.375 C72.8571429,55.8697941 72.7098229,56.3151022 72.4151786,56.7109375 C74.3794741,57.007814 76.1473136,57.7376244 77.71875,58.9003906 C79.2901864,60.0631569 80.5301294,61.5227777 81.4386161,63.2792969 C82.3471028,65.0358161 82.8013393,66.9283753 82.8013393,68.9570312 C82.8013393,70.837249 82.9241059,72.3958271 83.1696429,73.6328125 C83.3660724,74.6224008 83.6852656,75.4635382 84.1272321,76.15625 C84.3727691,76.5520853 84.7656223,77.0221327 85.3058036,77.5664062 Z M70.5,89 C71.1944479,89 71.7847198,88.7083363 72.2708333,88.125 C72.7569469,87.5416637 73,86.8333375 73,86 L68,86 C68,86.8333375 68.2430531,87.5416637 68.7291667,88.125 C69.2152802,88.7083363 69.8055521,89 70.5,89 Z M81.6505673,83 C82.2661007,83 82.6803957,82.709981 82.893465,82.1299342 C83.1065342,81.5498875 83.0000012,81.032897 82.5738627,80.5789474 C81.7689345,79.6710481 81.1534104,78.8892577 80.727272,78.2335526 C80.1590873,77.2752145 79.7329553,76.1403574 79.448863,74.8289474 C79.1174219,73.2653431 78.9517039,71.3234765 78.9517039,69.0032895 C78.9517039,67.3892463 78.5729198,65.8887131 77.8153404,64.5016447 C77.0577609,63.1145764 76.0279417,62.0175479 74.725852,61.2105263 C73.4237622,60.4035047 72.015159,60 70.5,60 C68.984841,60 67.5762378,60.4035047 66.274148,61.2105263 C64.9720583,62.0175479 63.9422391,63.1145764 63.1846596,64.5016447 C62.4270802,65.8887131 62.0482961,67.3892463 62.0482961,69.0032895 C62.0482961,71.3234765 61.8825781,73.240124 61.551137,74.7532895 C61.2670447,76.1151384 60.8409127,77.2752145 60.272728,78.2335526 C59.8465896,78.8892577 59.2310655,79.6710481 58.4261373,80.5789474 C57.9999988,81.032897 57.8934658,81.5498875 58.106535,82.1299342 C58.3196043,82.709981 58.7338993,83 59.3494327,83 L81.6505673,83 Z" id="icon_notice"></path>
            </g>
        </g>
    </g>
</svg>