<?xml version="1.0" encoding="UTF-8"?>
<svg width="40px" height="35px" viewBox="0 0 40 35" version="1.1" xmlns="http://www.w3.org/2000/svg" xmlns:xlink="http://www.w3.org/1999/xlink">
    <!-- Generator: Sketch 49.1 (51147) - http://www.bohemiancoding.com/sketch -->
    <title>icon_chatbot</title>
    <desc>Created with Sketch.</desc>
    <defs></defs>
    <g id="current-desktop" stroke="none" stroke-width="1" fill="none" fill-rule="evenodd">
        <g id="digital-channels" transform="translate(-970.000000, -635.000000)" fill="#FFFFFF">
            <g id="Group-5" transform="translate(924.000000, 588.000000)">
                <path d="M82.868037,47 L62.2166383,47 C60.602891,47 59.2955273,48.3073637 59.2955273,49.921111 L59.2955273,50.5586174 L74.0628378,50.5586174 C76.8374175,50.5586174 79.0943802,52.81558 79.0943802,55.5901597 L79.0943802,68.6447667 L82.868037,71.7923352 L82.868037,66.0909354 C84.4817843,66.0909354 85.789148,64.7835717 85.789148,63.1698244 L85.789148,49.921111 C85.789148,48.3073637 84.4817843,47 82.868037,47 M69.1614608,68.9068103 C68.1262267,68.9068103 67.285099,68.0656826 67.285099,67.0304485 C67.285099,65.9933113 68.1262267,65.1540866 69.1614608,65.1540866 C70.198598,65.1540866 71.0378227,65.9933113 71.0378227,67.0304485 C71.0378227,68.0656826 70.198598,68.9068103 69.1614608,68.9068103 M62.1089283,68.9068103 C61.0736941,68.9068103 60.2344694,68.0656826 60.2344694,67.0304485 C60.2344694,65.9933113 61.0736941,65.1540866 62.1089283,65.1540866 C63.1460654,65.1540866 63.9852901,65.9933113 63.9852901,67.0304485 C63.9852901,68.0656826 63.1460654,68.9068103 62.1089283,68.9068103 M55.0563957,68.9068103 C54.0211616,68.9068103 53.1819368,68.0656826 53.1819368,67.0304485 C53.1819368,65.9933113 54.0211616,65.1540866 55.0563957,65.1540866 C56.0935328,65.1540866 56.9346606,65.9933113 56.9346606,67.0304485 C56.9346606,68.0656826 56.0935328,68.9068103 55.0563957,68.9068103 M74.061696,52.1108977 L49.4786912,52.1108977 C47.5566572,52.1108977 46,53.6694579 46,55.5895888 L46,71.3597824 C46,73.2818164 47.5566572,74.8384736 49.4786912,74.8384736 L49.4786912,81.6264886 L57.617839,74.8384736 L74.061696,74.8384736 C75.9818269,74.8384736 77.5403871,73.2818164 77.5403871,71.3597824 L77.5403871,55.5895888 C77.5403871,53.6694579 75.9818269,52.1108977 74.061696,52.1108977" id="icon_chatbot"></path>
            </g>
        </g>
    </g>
</svg>