<?xml version="1.0" encoding="UTF-8"?>
<svg width="35px" height="33px" viewBox="0 0 35 33" version="1.1" xmlns="http://www.w3.org/2000/svg" xmlns:xlink="http://www.w3.org/1999/xlink">
    <!-- Generator: Sketch 49.1 (51147) - http://www.bohemiancoding.com/sketch -->
    <title>icon_sms</title>
    <desc>Created with Sketch.</desc>
    <defs></defs>
    <g id="current-desktop" stroke="none" stroke-width="1" fill="none" fill-rule="evenodd">
        <g id="digital-channels" transform="translate(-736.000000, -517.000000)" fill="#F3F4F4">
            <g id="Group-5" transform="translate(681.000000, 464.000000)">
                <path d="M63.6028834,84.4997088 C62.8484199,84.4997088 62.2378779,83.866679 62.2378779,83.0863545 C62.2378779,82.3060301 62.8484199,81.6730003 63.6028834,81.6730003 C64.3584714,81.6730003 64.9690134,82.3060301 64.9690134,83.0863545 C64.9690134,83.866679 64.3584714,84.4997088 63.6028834,84.4997088 Z M69.9545445,80.7588739 L69.9545445,73.774183 C70.7078837,73.1299094 71.4758398,72.4946308 72.2055669,71.9088253 L72.2055669,82.0890234 C72.2055669,83.9262715 70.7652274,85.4138352 68.9898206,85.4138352 L58.2170706,85.4138352 C56.4394151,85.4138352 55.0002,83.9262715 55.0002,82.0890234 L55.0002,58.8164654 C55.0002,56.9803417 56.4394151,55.4916536 58.2170706,55.4916536 L68.9898206,55.4916536 C69.3642414,55.4916536 69.7184233,55.5613656 70.0534905,55.6827994 C69.6835673,56.4158995 69.4193364,57.2389507 69.2585491,58.1508284 L57.2523468,58.1508284 L57.2523468,80.7588739 L69.9545445,80.7588739 Z M80.4719462,52.9999 C88.0952888,52.9999 90,56.3483239 90,60.4748235 C90,64.6058206 88.0952888,67.9519957 80.4719462,67.9519957 C78.9686411,67.9519957 77.6857157,67.8215669 76.5984337,67.5809481 C75.2750304,67.2874831 67.4594177,73.8988775 67.4594177,73.8988775 C67.4594177,73.8988775 72.4843024,65.4299961 72.1424888,64.9476342 C71.2587207,63.7018136 70.9450168,62.153533 70.9450168,60.4748235 C70.9450168,56.3483239 72.8508525,52.9999 80.4719462,52.9999 Z" id="icon_sms"></path>
            </g>
        </g>
    </g>
</svg>