<?xml version="1.0" encoding="UTF-8"?>
<svg width="49px" height="19px" viewBox="0 0 49 19" version="1.1" xmlns="http://www.w3.org/2000/svg" xmlns:xlink="http://www.w3.org/1999/xlink">
    <!-- Generator: Sketch 49.1 (51147) - http://www.bohemiancoding.com/sketch -->
    <title>icon_VR</title>
    <desc>Created with Sketch.</desc>
    <defs></defs>
    <g id="current-desktop" stroke="none" stroke-width="1" fill="none" fill-rule="evenodd">
        <g id="digital-channels" transform="translate(-1115.000000, -638.000000)" fill="#F3F4F4">
            <g id="Group-5" transform="translate(1073.000000, 588.000000)">
                <path d="M48.9896894,60.4348444 C48.0096974,58.3023266 47.2436473,54.0897413 50.074582,54.0828399 C52.1160019,54.2125853 53.8937902,54.328528 56.3976008,54.4568932 C48.5838899,54.7660738 48.7964516,56.3147372 48.9896894,60.4348444 Z M76.600619,54.4568932 C79.1044295,54.3312886 80.8822178,54.2125853 82.9236378,54.0828399 C85.7545724,54.0897413 84.9885223,58.3023266 84.0085303,60.4348444 C84.2017682,56.3147372 84.4143298,54.7660738 76.600619,54.4568932 Z M88.6545206,54.0828399 C88.0679056,51.9006324 86.4764538,50 82.8684269,50 C82.6903721,50 71.1485508,50.6611495 66.4998,50.6611495 C61.8496689,50.6611495 50.3092279,50 50.1297928,50 C46.5217659,50 44.9316944,51.9006324 44.3436992,54.0828399 L42,54.0828399 L42,55.7101787 C42.2222235,56.9538024 43.0835123,57.7543592 44.1449402,58.1670601 C44.7743435,63.4728196 48.4431023,68.3741599 54.7426565,68.3741599 C64.371423,68.3741599 62.9566458,58.666718 66.4998,58.666718 C70.0415739,58.666718 68.6267967,68.3741599 78.2555632,68.3741599 C84.5551174,68.3741599 88.2266367,63.4728196 88.8532795,58.1670601 C89.9147074,57.7543592 90.7746159,56.9538024 90.9996,55.7101787 L90.9996,54.0828399 L88.6545206,54.0828399 Z" id="icon_VR"></path>
            </g>
        </g>
    </g>
</svg>