<?xml version="1.0" encoding="UTF-8"?>
<svg width="42px" height="37px" viewBox="0 0 42 37" version="1.1" xmlns="http://www.w3.org/2000/svg" xmlns:xlink="http://www.w3.org/1999/xlink">
    <!-- Generator: Sketch 49.1 (51147) - http://www.bohemiancoding.com/sketch -->
    <title>icon_web</title>
    <desc>Created with Sketch.</desc>
    <defs></defs>
    <g id="current-desktop" stroke="none" stroke-width="1" fill="none" fill-rule="evenodd">
        <g id="digital-channels" transform="translate(-637.000000, -387.000000)" fill="#FFFFFF">
            <g id="Group-5" transform="translate(580.000000, 328.000000)">
                <path d="M95.15625,59 C96.1197913,59 96.9388025,59.33724 97.6132812,60.0117188 C98.28776,60.6861975 98.625,61.5052087 98.625,62.46875 L98.625,83.28125 C98.625,84.2447913 98.28776,85.0638025 97.6132812,85.7382813 C96.9388025,86.41276 96.1197913,86.75 95.15625,86.75 L60.46875,86.75 C59.5052087,86.75 58.6861975,86.41276 58.0117188,85.7382813 C57.33724,85.0638025 57,84.2447913 57,83.28125 L57,62.46875 C57,61.5052087 57.33724,60.6861975 58.0117188,60.0117188 C58.6861975,59.33724 59.5052087,59 60.46875,59 L95.15625,59 Z M60.46875,62.9682512 L60.46875,82.4487975 L95.15625,82.4487975 L95.15625,62.9682512 C95.15625,62.8572513 95.1080725,62.7462502 95.0117188,62.6352504 C94.915365,62.5242506 94.81901,62.46875 94.7226563,62.46875 L60.9023438,62.46875 C60.80599,62.46875 60.709635,62.5242506 60.6132812,62.6352504 C60.5169275,62.7462502 60.46875,62.8572513 60.46875,62.9682512 Z M91.6875,94.265625 C91.6875,94.7473962 91.5188806,95.1569007 91.1816406,95.4941406 C90.8444007,95.8313806 90.4348962,96 89.953125,96 L65.671875,96 C65.1901038,96 64.7805993,95.8313806 64.4433594,95.4941406 C64.1061194,95.1569007 63.9375,94.7473962 63.9375,94.265625 C63.9375,93.7838538 64.1061194,93.3743493 64.4433594,93.0371094 C64.7805993,92.6998694 65.1901038,92.53125 65.671875,92.53125 L72.8261719,92.53125 L74.1269531,88.484375 C74.2714844,88.0989587 74.5605469,87.90625 74.9941406,87.90625 L80.6308594,87.90625 C81.0644531,87.90625 81.3535156,88.0989587 81.4980469,88.484375 L82.7988281,92.53125 L89.953125,92.53125 C90.4348962,92.53125 90.8444007,92.6998694 91.1816406,93.0371094 C91.5188806,93.3743493 91.6875,93.7838538 91.6875,94.265625 Z" id="icon_web"></path>
            </g>
        </g>
    </g>
</svg>