<?xml version="1.0" encoding="UTF-8"?>
<svg width="34px" height="29px" viewBox="0 0 34 29" version="1.1" xmlns="http://www.w3.org/2000/svg" xmlns:xlink="http://www.w3.org/1999/xlink">
    <!-- Generator: Sketch 49.1 (51147) - http://www.bohemiancoding.com/sketch -->
    <title>icon_pos</title>
    <desc>Created with Sketch.</desc>
    <defs></defs>
    <g id="current-desktop" stroke="none" stroke-width="1" fill="none" fill-rule="evenodd">
        <g id="digital-channels" transform="translate(-825.000000, -635.000000)" fill="#FFFFFF">
            <g id="Group-5" transform="translate(775.000000, 588.000000)">
                <path d="M80.0357143,47 C80.8988138,47 81.6324375,47.3020803 82.2366071,47.90625 C82.8407768,48.5104197 83.1428571,49.2440433 83.1428571,50.1071429 L83.1428571,72.8928571 C83.1428571,73.7559567 82.8407768,74.4895803 82.2366071,75.09375 C81.6324375,75.6979197 80.8988138,76 80.0357143,76 L53.1071429,76 C52.2440433,76 51.5104197,75.6979197 50.90625,75.09375 C50.3020803,74.4895803 50,73.7559567 50,72.8928571 L50,50.1071429 C50,49.2440433 50.3020803,48.5104197 50.90625,47.90625 C51.5104197,47.3020803 52.2440433,47 53.1071429,47 L80.0357143,47 Z M53.1071429,50.8839286 L53.1071429,52.4375 C53.1071429,52.6532749 53.1826629,52.8366808 53.3337054,52.9877232 C53.4847478,53.1387656 53.6681537,53.2142857 53.8839286,53.2142857 L56.4732143,53.2142857 C56.6889892,53.2142857 56.8723951,53.1387656 57.0234375,52.9877232 C57.1744799,52.8366808 57.25,52.6532749 57.25,52.4375 L57.25,50.8839286 C57.25,50.6681537 57.1744799,50.4847478 57.0234375,50.3337054 C56.8723951,50.1826629 56.6889892,50.1071429 56.4732143,50.1071429 L53.8839286,50.1071429 C53.6681537,50.1071429 53.4847478,50.1826629 53.3337054,50.3337054 C53.1826629,50.4847478 53.1071429,50.6681537 53.1071429,50.8839286 Z M80.0357143,72.5044643 L80.0357143,55.8035714 L53.1071429,55.8035714 L53.1071429,72.5044643 C53.1071429,72.5907742 53.1502972,72.6770829 53.2366071,72.7633929 C53.3229171,72.8497028 53.4092258,72.8928571 53.4955357,72.8928571 L79.6473214,72.8928571 C79.7336314,72.8928571 79.81994,72.8497028 79.90625,72.7633929 C79.99256,72.6770829 80.0357143,72.5907742 80.0357143,72.5044643 Z M80.0357143,52.4375 L80.0357143,50.8839286 C80.0357143,50.6681537 79.9601942,50.4847478 79.8091518,50.3337054 C79.6581094,50.1826629 79.4747035,50.1071429 79.2589286,50.1071429 L61.1339286,50.1071429 C60.9181537,50.1071429 60.7347478,50.1826629 60.5837054,50.3337054 C60.4326629,50.4847478 60.3571429,50.6681537 60.3571429,50.8839286 L60.3571429,52.4375 C60.3571429,52.6532749 60.4326629,52.8366808 60.5837054,52.9877232 C60.7347478,53.1387656 60.9181537,53.2142857 61.1339286,53.2142857 L79.2589286,53.2142857 C79.4747035,53.2142857 79.6581094,53.1387656 79.8091518,52.9877232 C79.9601942,52.8366808 80.0357143,52.6532749 80.0357143,52.4375 Z" id="icon_pos"></path>
            </g>
        </g>
    </g>
</svg>