<?xml version="1.0" encoding="UTF-8"?>
<svg width="47px" height="38px" viewBox="0 0 47 38" version="1.1" xmlns="http://www.w3.org/2000/svg" xmlns:xlink="http://www.w3.org/1999/xlink">
    <!-- Generator: Sketch 49.1 (51147) - http://www.bohemiancoding.com/sketch -->
    <title>icon_responsive</title>
    <desc>Created with Sketch.</desc>
    <defs></defs>
    <g id="current-desktop" stroke="none" stroke-width="1" fill="none" fill-rule="evenodd">
        <g id="digital-channels" transform="translate(-807.000000, -387.000000)" fill="#FFFFFF">
            <g id="Group-6" transform="translate(752.000000, 328.000000)">
                <path d="M100.873437,84.7125 C101.116928,84.7125 101.323892,84.7977205 101.494336,84.9681641 C101.664779,85.1386076 101.75,85.3455717 101.75,85.5890625 L101.75,92.89375 C101.75,93.8677132 101.409118,94.6955695 100.727344,95.3773437 C100.04557,96.059118 99.2177132,96.4 98.24375,96.4 L58.50625,96.4 C57.5322868,96.4 56.7044305,96.059118 56.0226562,95.3773437 C55.340882,94.6955695 55,93.8677132 55,92.89375 L55,85.5890625 C55,85.3455717 55.0852205,85.1386076 55.2556641,84.9681641 C55.4261076,84.7977205 55.6330717,84.7125 55.8765625,84.7125 L75.5992187,84.7125 C75.6966151,84.7125 75.7940099,84.7611974 75.8914063,84.8585937 C75.9888026,84.9559901 76.0375,85.0533849 76.0375,85.1507812 L76.0375,86.465625 C76.0375,86.9526066 76.207941,87.3665348 76.5488281,87.7074219 C76.8897152,88.048309 77.3036434,88.21875 77.790625,88.21875 L78.959375,88.21875 C79.4463566,88.21875 79.8602848,88.048309 80.2011719,87.7074219 C80.542059,87.3665348 80.7125,86.9526066 80.7125,86.465625 L80.7125,85.1507812 C80.7125,85.0533849 80.7611974,84.9559901 80.8585937,84.8585937 C80.9559901,84.7611974 81.0533849,84.7125 81.1507812,84.7125 L100.873437,84.7125 Z M98.24375,92.89375 L98.24375,88.21875 L83.05,88.21875 C83.05,88.7544298 82.8673846,89.2779271 82.5021484,89.7892578 C82.1369122,90.3005885 81.7351584,90.55625 81.296875,90.55625 L75.453125,90.55625 C75.0148416,90.55625 74.6130878,90.3005885 74.2478516,89.7892578 C73.8826154,89.2779271 73.7,88.7544298 73.7,88.21875 L58.50625,88.21875 L58.50625,92.89375 L98.24375,92.89375 Z M63.18125,82.375 C62.2072868,82.375 61.3794305,82.034118 60.6976563,81.3523438 C60.015882,80.6705695 59.675,79.8427132 59.675,78.86875 L59.675,62.50625 C59.675,61.5322868 60.015882,60.7044305 60.6976563,60.0226562 C61.3794305,59.340882 62.2072868,59 63.18125,59 L93.56875,59 C94.5427132,59 95.3705695,59.340882 96.0523438,60.0226562 C96.734118,60.7044305 97.075,61.5322868 97.075,62.50625 L97.075,78.86875 C97.075,79.8427132 96.734118,80.6705695 96.0523438,81.3523438 C95.3705695,82.034118 94.5427132,82.375 93.56875,82.375 L63.18125,82.375 Z M63.18125,62.9445313 L63.18125,78.4304687 C63.18125,78.5278651 63.2299474,78.6252599 63.3273438,78.7226562 C63.4247401,78.8200526 63.5221349,78.86875 63.6195313,78.86875 L93.1304687,78.86875 C93.2278651,78.86875 93.3252599,78.8200526 93.4226562,78.7226562 C93.5200526,78.6252599 93.56875,78.5278651 93.56875,78.4304687 L93.56875,62.9445313 C93.56875,62.8471349 93.5200526,62.7497401 93.4226562,62.6523438 C93.3252599,62.5549474 93.2278651,62.50625 93.1304687,62.50625 L63.6195313,62.50625 C63.5221349,62.50625 63.4247401,62.5549474 63.3273438,62.6523438 C63.2299474,62.7497401 63.18125,62.8471349 63.18125,62.9445313 Z" id="icon_responsive"></path>
            </g>
        </g>
    </g>
</svg>