<?xml version="1.0" encoding="UTF-8"?>
<svg width="44px" height="42px" viewBox="0 0 44 42" version="1.1" xmlns="http://www.w3.org/2000/svg" xmlns:xlink="http://www.w3.org/1999/xlink">
    <!-- Generator: Sketch 49.1 (51147) - http://www.bohemiancoding.com/sketch -->
    <title>icon_social</title>
    <desc>Created with Sketch.</desc>
    <defs></defs>
    <g id="current-desktop" stroke="none" stroke-width="1" fill="none" fill-rule="evenodd">
        <g id="digital-channels" transform="translate(-1152.000000, -387.000000)" fill="#FFFFFF">
            <g id="Group-8" transform="translate(1096.000000, 328.000000)">
                <g id="icon_social" transform="translate(56.000000, 59.000000)">
                    <path d="M22,12 C23.6209679,12 25.1209677,12.4052421 26.5,13.2157258 C27.8790323,14.0262095 28.9737905,15.1209677 29.7842742,16.5 C30.5947579,17.8790323 31,19.3790321 31,21 C31,22.6209679 30.5947579,24.1209677 29.7842742,25.5 C28.9737905,26.8790323 27.8790323,27.9737905 26.5,28.7842742 C25.1209677,29.5947579 23.6209679,30 22,30 C20.3790321,30 18.8790323,29.5947579 17.5,28.7842742 C16.1209677,27.9737905 15.0262095,26.8790323 14.2157258,25.5 C13.4052421,24.1209677 13,22.6209679 13,21 C13,19.3790321 13.4052421,17.8790323 14.2157258,16.5 C15.0262095,15.1209677 16.1209677,14.0262095 17.5,13.2157258 C18.8790323,12.4052421 20.3790321,12 22,12 Z M18,19 C18,19.7142857 18.1785714,20.3809526 18.5357143,21 C18.8928571,21.6190474 19.3809526,22.1071429 20,22.4642857 C20.6190474,22.8214286 21.2857143,23 22,23 C22.7142857,23 23.3809526,22.8214286 24,22.4642857 C24.6190474,22.1071429 25.1071429,21.6190474 25.4642857,21 C25.8214286,20.3809526 26,19.7142857 26,19 C26,18.2857143 25.8214286,17.6190474 25.4642857,17 C25.1071429,16.3809526 24.6190474,15.8928571 24,15.5357143 C23.3809526,15.1785714 22.7142857,15 22,15 C21.2857143,15 20.6190474,15.1785714 20,15.5357143 C19.3809526,15.8928571 18.8928571,16.3809526 18.5357143,17 C18.1785714,17.6190474 18,18.2857143 18,19 Z M28,25.1100479 C27.2820511,24.3700162 26.4102566,24 25.3846154,24 L24.6923077,24 C23.8461538,24.4082937 22.9487181,24.6124402 22,24.6124402 C21.0512819,24.6124402 20.1538462,24.4082937 19.3076923,24 L18.6153846,24 C17.5897434,24 16.7179489,24.3700162 16,25.1100479 C17,26.3604469 18.2692308,27.2153111 19.8076923,27.6746413 C21.2692308,28.1084529 22.7307692,28.1084529 24.1923077,27.6746413 C25.7307692,27.2153111 27,26.3604469 28,25.1100479 Z" id=""></path>
                    <path d="M13,0.725446429 L13,12.2745536 C13,12.4680069 12.9322923,12.6372761 12.796875,12.7823661 C12.6614577,12.9274561 12.4873523,13 12.2745536,13 L8.96651786,13 L8.96651786,7.95089286 L10.6495536,7.95089286 L10.9107143,6.00669643 L8.96651786,6.00669643 L8.96651786,4.75892857 C8.96651786,4.43005788 9.02455299,4.19791734 9.140625,4.0625 C9.29538768,3.88839199 9.55654578,3.80133929 9.92410714,3.80133929 L10.96875,3.80133929 L10.96875,2.03125 C10.562498,1.99255933 10.0595268,1.97321429 9.45982143,1.97321429 C8.70535337,1.97321429 8.09598446,2.1956823 7.63169643,2.640625 C7.16740839,3.0855677 6.93526786,3.72395417 6.93526786,4.55580357 L6.93526786,6.00669643 L5.25223214,6.00669643 L5.25223214,7.95089286 L6.93526786,7.95089286 L6.93526786,13 L0.725446429,13 C0.512647746,13 0.338542344,12.9274561 0.203125,12.7823661 C0.0677076562,12.6372761 0,12.4680069 0,12.2745536 L0,0.725446429 C0,0.512647746 0.0677076562,0.338542344 0.203125,0.203125 C0.338542344,0.0677076562 0.512647746,0 0.725446429,0 L12.2745536,0 C12.4680069,0 12.6372761,0.0677076562 12.7823661,0.203125 C12.9274561,0.338542344 13,0.512647746 13,0.725446429 Z" id=""></path>
                    <path d="M43.0714286,29 C43.3229179,29 43.5405497,29.091889 43.7243304,29.2756696 C43.908111,29.4594503 44,29.6770821 44,29.9285714 L44,41.0714286 C44,41.3229179 43.908111,41.5405497 43.7243304,41.7243304 C43.5405497,41.908111 43.3229179,42 43.0714286,42 L31.9285714,42 C31.6770821,42 31.4594503,41.908111 31.2756696,41.7243304 C31.091889,41.5405497 31,41.3229179 31,41.0714286 L31,29.9285714 C31,29.6770821 31.091889,29.4594503 31.2756696,29.2756696 C31.4594503,29.091889 31.6770821,29 31.9285714,29 L43.0714286,29 Z M34.9464286,40.1428571 L34.9464286,33.9330357 L33.0022321,33.9330357 L33.0022321,40.1428571 L34.9464286,40.1428571 Z M33.9598214,33.0915179 C34.2693468,33.0915179 34.5353411,32.9802839 34.7578125,32.7578125 C34.9802839,32.5353411 35.0915179,32.274183 35.0915179,31.9743304 C35.0915179,31.6744777 34.9802839,31.4133196 34.7578125,31.1908482 C34.5353411,30.9683769 34.2693468,30.8571429 33.9598214,30.8571429 C33.6502961,30.8571429 33.389138,30.9683769 33.1763393,31.1908482 C32.9635406,31.4133196 32.8571429,31.6744777 32.8571429,31.9743304 C32.8571429,32.274183 32.9635406,32.5353411 33.1763393,32.7578125 C33.389138,32.9802839 33.6502961,33.0915179 33.9598214,33.0915179 Z M42.1428571,40.1428571 L42.1428571,36.7477679 C42.1428571,35.7805011 42.0074418,35.074407 41.7366071,34.6294643 C41.3690458,34.0684496 40.7403318,33.7879464 39.8504464,33.7879464 C39.4055037,33.7879464 39.0089303,33.8943442 38.6607143,34.1071429 C38.3705343,34.2812509 38.1577388,34.5037189 38.0223214,34.7745536 L37.9933036,34.7745536 L37.9933036,33.9330357 L36.1361607,33.9330357 L36.1361607,40.1428571 L38.0513393,40.1428571 L38.0513393,37.0669643 C38.0513393,36.5833309 38.1190469,36.2157751 38.2544643,35.9642857 C38.4479176,35.635415 38.7671109,35.4709821 39.2120536,35.4709821 C39.6569963,35.4709821 39.9471719,35.6547601 40.0825893,36.0223214 C40.179316,36.2544654 40.2276786,36.6220213 40.2276786,37.125 L40.2276786,40.1428571 L42.1428571,40.1428571 Z" id=""></path>
                    <path d="M42.6071429,0 C42.9940496,0 43.3229153,0.135415312 43.59375,0.40625 C43.8645847,0.677084688 44,1.00595045 44,1.39285714 L44,11.6071429 C44,11.9940496 43.8645847,12.3229153 43.59375,12.59375 C43.3229153,12.8645847 42.9940496,13 42.6071429,13 L32.3928571,13 C32.0059504,13 31.6770847,12.8645847 31.40625,12.59375 C31.1354153,12.3229153 31,11.9940496 31,11.6071429 L31,1.39285714 C31,1.00595045 31.1354153,0.677084688 31.40625,0.40625 C31.6770847,0.135415312 32.0059504,0 32.3928571,0 L42.6071429,0 Z M35.7589286,9.40178571 C36.590778,9.40178571 37.2630183,9.14062761 37.7756696,8.61830357 C38.288321,8.09597953 38.5446429,7.40923045 38.5446429,6.55803571 C38.5446429,6.40327304 38.5252978,6.24851268 38.4866071,6.09375 L35.7589286,6.09375 L35.7589286,7.08035714 L37.4129464,7.08035714 C37.3549104,7.37053717 37.2098226,7.63169527 36.9776786,7.86383929 C36.6681532,8.17336464 36.2667435,8.328125 35.7734375,8.328125 C35.2801315,8.328125 34.8545405,8.14918334 34.4966518,7.79129464 C34.1387631,7.43340595 33.9598214,7.00297871 33.9598214,6.5 C33.9598214,5.99702129 34.1339268,5.56659405 34.4821429,5.20870536 C34.8303589,4.85081666 35.2462773,4.671875 35.7299107,4.671875 C36.2135441,4.671875 36.6101175,4.81696283 36.9196429,5.10714286 L37.703125,4.35267857 C37.1614556,3.84969987 36.5133966,3.59821429 35.7589286,3.59821429 C34.9657698,3.59821429 34.283857,3.88355369 33.7131696,4.45424107 C33.1424823,5.02492845 32.8571429,5.70684127 32.8571429,6.5 C32.8571429,7.29315873 33.1424823,7.97507155 33.7131696,8.54575893 C34.283857,9.11644631 34.9657698,9.40178571 35.7589286,9.40178571 Z M42.1428571,7.02232143 L42.1428571,6.18080357 L41.3013393,6.18080357 L41.3013393,5.33928571 L40.4598214,5.33928571 L40.4598214,6.18080357 L39.6183036,6.18080357 L39.6183036,7.02232143 L40.4598214,7.02232143 L40.4598214,7.86383929 L41.3013393,7.86383929 L41.3013393,7.02232143 L42.1428571,7.02232143 Z" id=""></path>
                    <path d="M11.6071429,29 C11.9940496,29 12.3229153,29.1354153 12.59375,29.40625 C12.8645847,29.6770847 13,30.0059504 13,30.3928571 L13,40.6071429 C13,40.9940496 12.8645847,41.3229153 12.59375,41.59375 C12.3229153,41.8645847 11.9940496,42 11.6071429,42 L1.39285714,42 C1.00595045,42 0.677084688,41.8645847 0.40625,41.59375 C0.135415312,41.3229153 0,40.9940496 0,40.6071429 L0,30.3928571 C0,30.0059504 0.135415312,29.6770847 0.40625,29.40625 C0.677084688,29.1354153 1.00595045,29 1.39285714,29 L11.6071429,29 Z M10.1852679,33.6138393 C10.5528292,33.3430046 10.8720225,33.0141388 11.1428571,32.6272321 C10.7752958,32.7819948 10.4077399,32.87872 10.0401786,32.9174107 C10.4464306,32.6659214 10.7269338,32.3177106 10.8816964,31.8727679 C10.4947897,32.1049119 10.0885438,32.2596722 9.66294643,32.3370536 C9.29538507,31.9308015 8.84077652,31.7276786 8.29910714,31.7276786 C7.91220045,31.7276786 7.55915338,31.8340763 7.23995536,32.046875 C6.92075733,32.2596737 6.68378054,32.5450131 6.52901786,32.9029018 C6.37425518,33.2607905 6.34523761,33.6525276 6.44196429,34.078125 C5.64880556,34.0394343 4.91369386,33.8411476 4.23660714,33.4832589 C3.55952042,33.1253702 2.97916908,32.6562529 2.49553571,32.0758929 C2.3214277,32.3660729 2.234375,32.6804299 2.234375,33.0189732 C2.234375,33.3575166 2.31175518,33.6670373 2.46651786,33.9475446 C2.62128054,34.228052 2.83407603,34.4553563 3.10491071,34.6294643 C2.79538536,34.610119 2.50520969,34.5230662 2.234375,34.3683036 L2.234375,34.3973214 C2.234375,34.8616095 2.37946283,35.2678554 2.66964286,35.6160714 C2.95982288,35.9642875 3.32737873,36.1867555 3.77232143,36.2834821 C3.50148674,36.3415181 3.21131107,36.3511907 2.90178571,36.3125 C3.01785772,36.6994067 3.24032574,37.0137637 3.56919643,37.2555804 C3.89806712,37.497397 4.26562297,37.6183036 4.671875,37.6183036 C3.97544295,38.1599729 3.19196864,38.4308036 2.32142857,38.4308036 L1.85714286,38.4308036 C2.74702826,38.9918183 3.72395301,39.2723214 4.78794643,39.2723214 C5.89063051,39.2723214 6.87722779,38.9918183 7.74776786,38.4308036 C8.52158125,37.9278249 9.13095016,37.2410758 9.57589286,36.3705357 C9.98214489,35.5580317 10.1852679,34.7165222 10.1852679,33.8459821 L10.1852679,33.6138393 Z" id=""></path>
                </g>
            </g>
        </g>
    </g>
</svg>