<?xml version="1.0" encoding="UTF-8"?>
<svg width="39px" height="29px" viewBox="0 0 39 29" version="1.1" xmlns="http://www.w3.org/2000/svg" xmlns:xlink="http://www.w3.org/1999/xlink">
    <!-- Generator: Sketch 49.1 (51147) - http://www.bohemiancoding.com/sketch -->
    <title>icon_mail</title>
    <desc>Created with Sketch.</desc>
    <defs></defs>
    <g id="current-desktop" stroke="none" stroke-width="1" fill="none" fill-rule="evenodd">
        <g id="digital-channels" transform="translate(-892.000000, -517.000000)" fill="#FFFFFF">
            <g id="Group-9" transform="translate(837.000000, 461.000000)">
                <path d="M90.0416667,56 C91.0486161,56 91.9045104,56.352427 92.609375,57.0572917 C93.3142396,57.7621563 93.6666667,58.6180505 93.6666667,59.625 L93.6666667,81.375 C93.6666667,82.3819495 93.3142396,83.2378437 92.609375,83.9427083 C91.9045104,84.647573 91.0486161,85 90.0416667,85 L58.625,85 C57.6180505,85 56.7621563,84.647573 56.0572917,83.9427083 C55.352427,83.2378437 55,82.3819495 55,81.375 L55,59.625 C55,58.6180505 55.352427,57.7621563 56.0572917,57.0572917 C56.7621563,56.352427 57.6180505,56 58.625,56 L90.0416667,56 Z M90.0416667,59.625 L58.625,59.625 L58.625,62.7213542 C60.3871616,64.1310834 63.7855651,66.7994595 68.8203125,70.7265625 L69.5,71.3307292 C70.5069495,72.1866362 71.312497,72.7907968 71.9166667,73.1432292 C72.8732687,73.7977463 73.6788162,74.125 74.3333333,74.125 C74.9878505,74.125 75.793398,73.7977463 76.75,73.1432292 C77.3541697,72.7907968 78.1597172,72.1866362 79.1666667,71.3307292 L79.8463542,70.7265625 C84.8811016,66.849807 88.2795051,64.1814309 90.0416667,62.7213542 L90.0416667,59.625 Z M58.625,81.375 L90.0416667,81.375 L90.0416667,67.328125 L81.28125,74.2760417 C80.0225632,75.3333386 78.9904554,76.0885394 78.1848958,76.5416667 C76.825514,77.3472263 75.5416727,77.75 74.3333333,77.75 C73.124994,77.75 71.8159793,77.3472263 70.40625,76.5416667 C69.6510379,76.0885394 68.6189302,75.3333386 67.3098958,74.2760417 L58.625,67.328125 L58.625,81.375 Z" id="icon_mail"></path>
            </g>
        </g>
    </g>
</svg>