<?xml version="1.0" encoding="UTF-8"?>
<svg width="27px" height="42px" viewBox="0 0 27 42" version="1.1" xmlns="http://www.w3.org/2000/svg" xmlns:xlink="http://www.w3.org/1999/xlink">
    <!-- Generator: Sketch 49.1 (51147) - http://www.bohemiancoding.com/sketch -->
    <title>icon_mobile</title>
    <desc>Created with Sketch.</desc>
    <defs></defs>
    <g id="current-desktop" stroke="none" stroke-width="1" fill="none" fill-rule="evenodd">
        <g id="digital-channels" transform="translate(-989.000000, -388.000000)" fill="#FFFFFF">
            <g id="Group-7" transform="translate(924.000000, 328.000000)">
                <path d="M89.6206897,78.8275862 L89.6206897,99 C89.6206897,100.656854 88.2775439,102 86.6206897,102 L68,102 C66.3431458,102 65,100.656854 65,99 L65,63 C65,61.3431458 66.3431458,60 68,60 L86.6206897,60 C88.2775439,60 89.6206897,61.3431458 89.6206897,63 L89.6206897,65.7931034 L91.0689655,65.7931034 L91.0689655,71.5862069 L89.6206897,71.5862069 L89.6206897,73.0344828 L91.0689655,73.0344828 L91.0689655,78.8275862 L89.6206897,78.8275862 Z M77.3103448,100.551724 C79.3099965,100.551724 80.9310345,100.227517 80.9310345,99.8275862 C80.9310345,99.4276559 79.3099965,99.1034483 77.3103448,99.1034483 C75.3106931,99.1034483 73.6896552,99.4276559 73.6896552,99.8275862 C73.6896552,100.227517 75.3106931,100.551724 77.3103448,100.551724 Z M69,62.8965517 C68.4477153,62.8965517 68,63.344267 68,63.8965517 L68,96 C68,96.5522847 68.4477153,97 69,97 L86,97 C86.5522847,97 87,96.5522847 87,96 L87,63.8965517 C87,63.344267 86.5522847,62.8965517 86,62.8965517 L69,62.8965517 Z" id="icon_mobile"></path>
            </g>
        </g>
    </g>
</svg>