<?xml version="1.0" encoding="UTF-8"?>
<svg width="27px" height="46px" viewBox="0 0 27 46" version="1.1" xmlns="http://www.w3.org/2000/svg" xmlns:xlink="http://www.w3.org/1999/xlink">
    <!-- Generator: Sketch 49.1 (51147) - http://www.bohemiancoding.com/sketch -->
    <title>icon_watch</title>
    <desc>Created with Sketch.</desc>
    <defs></defs>
    <g id="current-desktop" stroke="none" stroke-width="1" fill="none" fill-rule="evenodd">
        <g id="digital-channels" transform="translate(-677.000000, -631.000000)" fill="#F3F4F4">
            <g id="Group-5" transform="translate(626.000000, 588.000000)">
                <path d="M72.6936343,63.4499306 C73.1355721,61.3093368 71.7677435,59.214121 69.6389727,58.7697287 L61.271721,57.0265843 C59.1429502,56.582192 57.0593069,57.9576174 56.6173691,60.0982113 L54.8838526,68.5103696 C54.4419148,70.6525282 55.8097434,72.7461792 57.9400703,73.1905715 L66.3057659,74.9352807 C68.4345366,75.379673 70.51818,74.0026828 70.9585616,71.8620889 L72.6936343,63.4499306 Z M76.4672228,62.07607 L73.8778408,74.631717 C73.2927401,77.4717592 70.5384095,79.297836 67.7140536,78.7329571 C67.7140536,78.7329571 65.9603075,88.2905209 68.2478024,88.9117312 C70.5368534,89.5329416 56.6391548,86.6850755 55.7194885,86.3001441 C54.7998222,85.913648 55.1857397,76.1260643 55.1857397,76.1260643 C55.1857397,76.1260643 55.8502025,81.122348 55.1841835,76.1260643 C52.3458225,75.5330196 50.5220511,72.7399202 51.1102641,69.885795 L53.699646,57.3285833 C54.287859,54.4744581 57.0670875,52.6405576 59.9054485,53.2320374 C59.9054485,53.2320374 62.3361064,42.5353272 64.6453869,43.015709 C66.9531114,43.4976556 79.8642305,46.1890455 77.1721447,45.6272961 C74.4800589,45.0655467 72.4337624,55.8483188 72.4337624,55.8483188 C75.2472255,56.4585758 77.0523235,59.2344629 76.4672228,62.07607 Z M76.601049,70.6728701 L74.887762,70.3161045 L76.286713,63.532863 L78,63.8896286 L76.601049,70.6728701 Z" id="icon_watch"></path>
            </g>
        </g>
    </g>
</svg>