<?xml version="1.0" encoding="UTF-8"?>
<svg width="40px" height="37px" viewBox="0 0 40 37" version="1.1" xmlns="http://www.w3.org/2000/svg" xmlns:xlink="http://www.w3.org/1999/xlink">
    <!-- Generator: Sketch 49.1 (51147) - http://www.bohemiancoding.com/sketch -->
    <title>icon_chat</title>
    <desc>Created with Sketch.</desc>
    <defs></defs>
    <g id="current-desktop" stroke="none" stroke-width="1" fill="none" fill-rule="evenodd">
        <g id="digital-channels" transform="translate(-1208.000000, -516.000000)" fill="#F3F4F4">
            <g id="Group-5" transform="translate(1158.000000, 464.000000)">
                <path d="M72.894007,64.3377507 C71.9340062,64.3377507 71.1543998,65.1160956 71.1543998,66.0786194 C71.1543998,67.0398816 71.9340062,67.8182265 72.894007,67.8182265 C73.8540077,67.8182265 74.6348757,67.0398816 74.6348757,66.0786194 C74.6348757,65.1160956 73.8540077,64.3377507 72.894007,64.3377507 M67.2071693,64.3377507 C66.245907,64.3377507 65.4663006,65.1160956 65.4663006,66.0786194 C65.4663006,67.0398816 66.245907,67.8182265 67.2071693,67.8182265 C68.16717,67.8182265 68.9480379,67.0398816 68.9480379,66.0786194 C68.9480379,65.1160956 68.16717,64.3377507 67.2071693,64.3377507 M61.51907,64.3377507 C60.5590693,64.3377507 59.7794628,65.1160956 59.7794628,66.0786194 C59.7794628,67.0398816 60.5590693,67.8182265 61.51907,67.8182265 C62.4803323,67.8182265 63.2599387,67.0398816 63.2599387,66.0786194 C63.2599387,65.1160956 62.4803323,64.3377507 61.51907,64.3377507 M85.9505221,70.4522366 C85.6893918,71.2457195 85.3639251,72.0139724 84.9741219,72.7532108 C87.6989598,74.8044083 88.6412996,77.9960009 85.7284983,81.4714308 C85.6931763,82.6824698 85.6477623,83.175716 85.9530451,84.5015515 C84.5035827,84.0032593 84.3610333,83.8644945 83.2471297,83.180762 C79.7906223,84.0234433 76.3164539,84.3110651 73.3519311,81.79059 C72.4398673,82.0504588 71.4924815,82.2434682 70.5249117,82.3834946 C72.9835734,85.4325378 77.5085705,87.0901475 82.8371425,85.7958495 C84.3231883,86.7066518 87.6030859,87.6262846 89.9091061,88.0451023 C89.0475023,86.3471246 88.093809,84.0183973 88.1404845,82.3923251 C90.9927338,78.9837546 90.6483446,73.5593087 85.9505221,70.4522366 M67.2071693,52.2954807 C58.6251912,52.2954807 50.9578,58.0252094 50.9578,65.8666875 C50.9578,68.6470314 51.9569072,71.3769154 53.7280519,73.4962338 C53.8050034,75.9776024 52.345449,79.5375527 51.0284439,82.1274103 C54.5518108,81.4928762 59.5637465,80.0837818 61.8331833,78.6910869 C63.7519234,79.1603645 65.5899275,79.3748193 67.3282732,79.3748193 C76.9207119,79.3748193 83.4565385,72.8137628 83.4565385,65.8666875 C83.4565385,57.9823185 75.7361643,52.2954807 67.2071693,52.2954807 M67.2071693,55.5488868 C74.3750068,55.5488868 80.206917,60.1785883 80.206917,65.8666875 C80.206917,70.7991488 75.2845477,76.1214133 67.3282732,76.1214133 C64.7611226,76.1214133 62.911765,75.6067217 61.2869542,75.210611 C59.7176494,76.1743962 59.2458488,76.5314005 56.4024299,77.4409413 C57.0773319,74.9747107 56.99155,73.896129 56.94109,72.2675337 C55.5799325,70.6414614 54.2074216,68.9056387 54.2074216,65.8666875 C54.2074216,60.1785883 60.0393317,55.5488868 67.2071693,55.5488868" id="icon_chat"></path>
            </g>
        </g>
    </g>
</svg>