<?xml version="1.0" encoding="utf-8"?>
<!-- Generator: Adobe Illustrator 22.0.1, SVG Export Plug-In . SVG Version: 6.00 Build 0)  -->
<svg version="1.1" id="Layer_1" xmlns="http://www.w3.org/2000/svg" xmlns:xlink="http://www.w3.org/1999/xlink" x="0px" y="0px"
	 viewBox="0 0 32 32" style="enable-background:new 0 0 32 32;" xml:space="preserve">
<style type="text/css">
	.st0{fill:#464856;}
	.st1{fill:#FFFFFF;}
</style>
<path class="st0" d="M27,31.9H5c-2.8,0-5-2.2-5-5V5c0-2.8,2.2-5,5-5H27c2.8,0,5,2.2,5,5v21.9C32,29.7,29.7,31.9,27,31.9z"/>
<g>
	<path class="st1" d="M6.8,15.8v2.4h-1v-6.1h2.1c0.7,0,1.2,0.2,1.6,0.5S10,13.4,10,14c0,0.6-0.2,1-0.5,1.4c-0.4,0.3-0.9,0.5-1.6,0.5
		H6.8z M9,14c0-0.3-0.1-0.6-0.3-0.8c-0.2-0.2-0.5-0.3-0.9-0.3h-1V15h1C8.6,15,9,14.7,9,14z"/>
	<path class="st1" d="M11.8,12.1v6.1h-1v-6.1H11.8z"/>
	<path class="st1" d="M20.7,12.1l-1.5,6.1h-1.2l-1.3-4.7l-1.3,4.7h-1.2l-1.5-6.1h1.1l1,4.9l1.3-4.9h1.1l1.3,4.9l1-4.9H20.7z"/>
	<path class="st1" d="M25.9,12.4c0.5,0.3,0.8,0.6,1.1,1.1c0.3,0.5,0.4,1,0.4,1.6c0,0.6-0.1,1.1-0.4,1.6c-0.3,0.5-0.6,0.8-1.1,1.1
		c-0.5,0.3-1,0.4-1.5,0.4c-0.6,0-1.1-0.1-1.5-0.4c-0.5-0.3-0.8-0.6-1.1-1.1c-0.3-0.5-0.4-1-0.4-1.6c0-0.6,0.1-1.1,0.4-1.6
		c0.3-0.5,0.6-0.8,1.1-1.1c0.5-0.3,1-0.4,1.5-0.4C24.9,12.1,25.4,12.2,25.9,12.4z M23.3,13.2c-0.3,0.2-0.5,0.4-0.7,0.8
		s-0.3,0.7-0.3,1.2c0,0.4,0.1,0.8,0.3,1.2c0.2,0.3,0.4,0.6,0.7,0.8s0.6,0.3,1,0.3c0.4,0,0.7-0.1,1-0.3s0.5-0.4,0.7-0.8
		c0.2-0.3,0.3-0.7,0.3-1.2c0-0.4-0.1-0.8-0.3-1.2s-0.4-0.6-0.7-0.8c-0.3-0.2-0.6-0.3-1-0.3C23.9,13,23.6,13.1,23.3,13.2z"/>
</g>
</svg>
