<svg width="80" height="80" xmlns="http://www.w3.org/2000/svg"><g stroke-width="2" stroke="#FFF" fill="none" fill-rule="evenodd"><path d="M49.032 72.258v6.452a1.29 1.29 0 0 1-1.29 1.29H34.839a1.29 1.29 0 0 1-1.29-1.29v-6.452M38.71 80v-7.742M43.871 80v-7.742m24.516-47.742C68.387 9.551 56.255 0 41.29 0 26.325 0 14.194 9.551 14.194 24.516c0 21.936 18.064 29.678 18.064 42.58h18.065c0-12.902 18.064-20.644 18.064-42.58z"/><path d="M41.29 0c-9.032 0-16.774 9.551-16.774 24.516 0 21.936 11.613 32.258 11.613 42.58M41.29 0c9.033 0 16.775 9.551 16.775 24.516 0 21.936-11.613 32.258-11.613 42.58" stroke-linejoin="round"/><path d="M40 67.097c0-7.742-5.161-26.19-5.161-42.58C34.839 8.124 38.44 0 41.29 0m1.29 67.097c0-7.742 5.162-26.19 5.162-42.58C47.742 8.124 44.14 0 41.29 0" stroke-linejoin="round"/><path d="M30.968 72.258h20.645M14.194 42.58a6.451 6.451 0 0 0-6.452 6.452 7.742 7.742 0 0 0 0 15.484h19.355M1.29 5.161c7.742 0 7.742 5.162 7.742 5.162s0-5.162 7.742-5.162"/><path d="M64.516 49.032H74.84a5.162 5.162 0 0 0 0-10.322 3.872 3.872 0 0 0-3.871-3.871" stroke-linejoin="round"/></g></svg>