<?xml version="1.0" encoding="UTF-8"?>
<svg width="22px" height="22px" viewBox="0 0 22 22" version="1.1" xmlns="http://www.w3.org/2000/svg" xmlns:xlink="http://www.w3.org/1999/xlink">
    <!-- Generator: Sketch 47.1 (45422) - http://www.bohemiancoding.com/sketch -->
    <title>icon-arrow-red</title>
    <desc>Created with Sketch.</desc>
    <defs></defs>
    <g id="Symbols" stroke="none" stroke-width="1" fill="none" fill-rule="evenodd">
        <g id="icon-arrow-red" stroke="#9C0002">
            <g id="arrow" transform="translate(1.000000, 1.000000)">
                <path d="M10,19.4444444 C4.79222222,19.4444444 0.555555556,15.2077778 0.555555556,10 C0.555555556,4.79222222 4.79222222,0.555555556 10,0.555555556 C15.2077778,0.555555556 19.4444444,4.79222222 19.4444444,10 C19.4444444,15.2077778 15.2077778,19.4444444 10,19.4444444 M10,0 C4.48583333,0 0,4.48583333 0,10 C0,15.5141667 4.48583333,20 10,20 C15.5141667,20 20,15.5141667 20,10 C20,4.48583333 15.5141667,0 10,0" id="Fill-1"></path>
                <path d="M9.88793744,11.5843988 L6.45252032,8.22239978 C6.34888263,8.12124413 6.1811009,8.12124413 6.07772827,8.22239978 C5.97409058,8.32381481 5.97409058,8.48799822 6.07772827,8.58941325 L9.70054141,12.1345299 C9.75222773,12.1851077 9.82008259,12.2105263 9.88793744,12.2105263 C9.9557923,12.2105263 10.0236472,12.1851077 10.0753335,12.1345299 L14.3433244,8.44281536 C14.4469621,8.34140033 14.4469621,8.1774763 14.3433244,8.07606127 C14.2396867,7.97464624 14.07217,7.97464624 13.9685323,8.07606127 L9.88793744,11.5843988 Z" id="Fill-3" transform="translate(10.210526, 10.105263) rotate(-90.000000) translate(-10.210526, -10.105263) "></path>
            </g>
        </g>
    </g>
</svg>