<svg width="90" height="90" xmlns="http://www.w3.org/2000/svg"><g fill="#FFF"><path d="M62.078 90h-2.766V71.719h9.68c3.813 0 6.914-3.154 6.914-7.031V50.624h8.297v-1.097l-8.297-18.281v-.31C75.906 15.43 63.5 2.813 48.25 2.813V0c16.673 0 30.256 13.71 30.42 30.625l8.3 18.285v4.529h-8.297v11.25c0 5.428-4.344 9.843-9.68 9.843h-6.914V90z"/><path d="M56.547 71.719h4.148v2.813h-4.148z"/><g transform="translate(4)"><ellipse cx="35.953" cy="36.563" rx="2.766" ry="2.813"/><path d="M9.68 35.156h26.273v2.813H9.68z"/><path d="M5.531 42.188C2.481 42.188 0 39.664 0 36.562c0-3.102 2.48-5.624 5.531-5.624 3.05 0 5.532 2.522 5.532 5.625 0 3.102-2.481 5.624-5.532 5.624zm0-8.438c-1.525 0-2.765 1.261-2.765 2.813 0 1.55 1.24 2.812 2.765 2.812 1.525 0 2.766-1.261 2.766-2.813 0-1.55-1.24-2.812-2.766-2.812zm8.297-14.062c-3.05 0-5.531-2.523-5.531-5.625 0-3.103 2.48-5.626 5.531-5.626 3.05 0 5.531 2.523 5.531 5.626 0 3.102-2.48 5.624-5.53 5.624zm0-8.438c-1.525 0-2.765 1.261-2.765 2.813 0 1.55 1.24 2.812 2.765 2.812 1.525 0 2.766-1.261 2.766-2.813 0-1.55-1.24-2.812-2.766-2.812zM34.57 9.844h2.766v26.719H34.57z"/><path d="M35.953 11.25c-3.05 0-5.531-2.523-5.531-5.625S32.902 0 35.953 0c3.05 0 5.531 2.523 5.531 5.625s-2.48 5.625-5.53 5.625zm0-8.438c-1.525 0-2.766 1.262-2.766 2.813 0 1.551 1.24 2.813 2.766 2.813 1.525 0 2.766-1.262 2.766-2.813 0-1.551-1.24-2.813-2.766-2.813zM17.588 16.045l19.36 19.36-1.989 1.988L15.6 18.033zm-3.76 48.643c-3.05 0-5.531-2.523-5.531-5.626 0-3.102 2.48-5.624 5.531-5.624 3.05 0 5.531 2.522 5.531 5.624 0 3.103-2.48 5.626-5.53 5.626zm0-8.438c-1.525 0-2.765 1.261-2.765 2.813 0 1.55 1.24 2.812 2.765 2.812 1.525 0 2.766-1.261 2.766-2.813 0-1.55-1.24-2.812-2.766-2.812z"/><path d="M34.57 36.563h2.766v26.719H34.57z"/><path d="M35.953 73.125c-3.05 0-5.531-2.523-5.531-5.625s2.48-5.625 5.531-5.625c3.05 0 5.531 2.523 5.531 5.625s-2.48 5.625-5.53 5.625zm0-8.438c-1.525 0-2.766 1.262-2.766 2.813 0 1.551 1.24 2.813 2.766 2.813 1.525 0 2.766-1.262 2.766-2.813 0-1.551-1.24-2.813-2.766-2.813zm-.814-29.103l1.956 1.956-19.688 19.688-1.955-1.956z"/><path d="M35.953 40.781c-2.287 0-4.148-1.893-4.148-4.218 0-2.326 1.861-4.22 4.148-4.22s4.149 1.894 4.149 4.22c0 2.325-1.862 4.218-4.149 4.218zm0-5.625c-.763 0-1.383.632-1.383 1.407 0 .774.62 1.406 1.383 1.406s1.383-.632 1.383-1.407c0-.774-.62-1.406-1.383-1.406z"/><path d="M35.953 42.188c-3.05 0-5.531-2.523-5.531-5.626 0-3.102 2.48-5.624 5.531-5.624 3.05 0 5.531 2.522 5.531 5.625 0 3.102-2.48 5.624-5.53 5.624zm0-8.438c-1.525 0-2.766 1.261-2.766 2.813 0 1.55 1.24 2.812 2.766 2.812 1.525 0 2.766-1.261 2.766-2.813 0-1.55-1.24-2.812-2.766-2.812z"/><path d="M35.953 53.438c-9.15 0-16.594-7.57-16.594-16.876 0-9.305 7.444-16.874 16.594-16.874 9.15 0 16.594 7.57 16.594 16.875s-7.444 16.874-16.594 16.874zm0-30.938c-7.625 0-13.828 6.308-13.828 14.063 0 7.754 6.203 14.062 13.828 14.062 7.625 0 13.828-6.308 13.828-14.063 0-7.754-6.203-14.062-13.828-14.062z"/></g><path d="M59.313 40.781h2.766v2.813h-2.766zm0-5.625h2.766v2.813h-2.766zm0-5.625h2.766v2.813h-2.766z"/></g></svg>