<svg width="80" height="80" xmlns="http://www.w3.org/2000/svg"><g stroke-width="2" stroke="#FFF" fill="none" fill-rule="evenodd"><path d="M15.484 40V18.065a2.582 2.582 0 0 1 2.58-2.581h14.194M40 64.516H18.065a2.58 2.58 0 0 1-2.581-2.58V47.741M64.516 40v21.935a2.58 2.58 0 0 1-2.58 2.581H47.741M40 15.484h21.935a2.582 2.582 0 0 1 2.581 2.58v14.194M19.355 20.645h2.58m36.13 0h2.58m-41.29 38.71h2.58m36.13 0h2.58"/><circle cx="40" cy="9.032" r="6.452"/><circle cx="70.968" cy="40" r="6.452"/><circle cx="40" cy="70.968" r="6.452"/><circle cx="9.032" cy="40" r="6.452"/><circle cx="40" cy="40" r="40"/><path d="M30.968 46.452L24.516 40l6.452-6.452m18.064 0L55.484 40l-6.452 6.452m-15.484 5.161l12.904-23.226"/></g></svg>