<svg width="90" height="90" xmlns="http://www.w3.org/2000/svg"><path d="M58.8 90H56V71.719h9.8c3.86 0 7-3.154 7-7.031V50.624h8.4v-1.097l-8.4-18.281v-.31c0-15.508-12.56-28.125-28-28.125V0c16.88 0 30.632 13.71 30.799 30.625L84 48.91v4.529h-8.4v11.25c0 5.428-4.397 9.843-9.8 9.843h-7V90z"/><path d="M53.2 71.719h4.2v2.813h-4.2z"/><ellipse cx="36.4" cy="36.563" rx="2.8" ry="2.813"/><path d="M9.8 35.156h26.6v2.813H9.8z"/><path d="M5.6 42.188c-3.088 0-5.6-2.523-5.6-5.626 0-3.102 2.512-5.624 5.6-5.624 3.088 0 5.6 2.522 5.6 5.625 0 3.102-2.512 5.624-5.6 5.624zm0-8.438a2.81 2.81 0 0 0-2.8 2.813 2.81 2.81 0 0 0 2.8 2.812 2.81 2.81 0 0 0 2.8-2.813 2.81 2.81 0 0 0-2.8-2.812zM14 19.688c-3.088 0-5.6-2.523-5.6-5.625 0-3.103 2.512-5.626 5.6-5.626 3.088 0 5.6 2.523 5.6 5.626 0 3.102-2.512 5.624-5.6 5.624zm0-8.438a2.81 2.81 0 0 0-2.8 2.813 2.81 2.81 0 0 0 2.8 2.812 2.81 2.81 0 0 0 2.8-2.813A2.81 2.81 0 0 0 14 11.25zm21-1.406h2.8v26.719H35z"/><path d="M36.4 11.25c-3.088 0-5.6-2.523-5.6-5.625S33.312 0 36.4 0C39.488 0 42 2.523 42 5.625s-2.512 5.625-5.6 5.625zm0-8.438a2.81 2.81 0 0 0-2.8 2.813 2.81 2.81 0 0 0 2.8 2.813 2.81 2.81 0 0 0 2.8-2.813 2.81 2.81 0 0 0-2.8-2.813zM17.794 15.925l19.6 19.6-1.988 1.988-19.6-19.6zM14 64.688c-3.088 0-5.6-2.523-5.6-5.626 0-3.102 2.512-5.624 5.6-5.624 3.088 0 5.6 2.522 5.6 5.624 0 3.103-2.512 5.626-5.6 5.626zm0-8.438a2.81 2.81 0 0 0-2.8 2.813 2.81 2.81 0 0 0 2.8 2.812 2.81 2.81 0 0 0 2.8-2.813A2.81 2.81 0 0 0 14 56.25z"/><path d="M35 36.563h2.8v26.719H35z"/><path d="M36.4 73.125c-3.088 0-5.6-2.523-5.6-5.625s2.512-5.625 5.6-5.625c3.088 0 5.6 2.523 5.6 5.625s-2.512 5.625-5.6 5.625zm0-8.438a2.81 2.81 0 0 0-2.8 2.813 2.81 2.81 0 0 0 2.8 2.813 2.81 2.81 0 0 0 2.8-2.813 2.81 2.81 0 0 0-2.8-2.813zm-.946-29.114l1.98 1.98L17.746 57.24l-1.98-1.98z"/><path d="M36.4 40.781c-2.316 0-4.2-1.893-4.2-4.218 0-2.326 1.884-4.22 4.2-4.22 2.316 0 4.2 1.894 4.2 4.22 0 2.325-1.884 4.218-4.2 4.218zm0-5.625c-.773 0-1.4.632-1.4 1.407 0 .774.627 1.406 1.4 1.406.773 0 1.4-.632 1.4-1.407 0-.774-.627-1.406-1.4-1.406z"/><path d="M36.4 42.188c-3.088 0-5.6-2.523-5.6-5.626 0-3.102 2.512-5.624 5.6-5.624 3.088 0 5.6 2.522 5.6 5.625 0 3.102-2.512 5.624-5.6 5.624zm0-8.438a2.81 2.81 0 0 0-2.8 2.813 2.81 2.81 0 0 0 2.8 2.812 2.81 2.81 0 0 0 2.8-2.813 2.81 2.81 0 0 0-2.8-2.812z"/><path d="M36.4 53.438c-9.264 0-16.8-7.57-16.8-16.876 0-9.305 7.536-16.874 16.8-16.874 9.264 0 16.8 7.57 16.8 16.875s-7.536 16.874-16.8 16.874zm0-30.938c-7.72 0-14 6.308-14 14.063 0 7.754 6.28 14.062 14 14.062s14-6.308 14-14.063c0-7.754-6.28-14.062-14-14.062zM56 40.781h2.8v2.813H56zm0-5.625h2.8v2.813H56zm0-5.625h2.8v2.813H56z"/></svg>