<svg width="90" height="90" xmlns="http://www.w3.org/2000/svg"><g fill="#FFF"><path d="M43.594 54.844h2.813v33.75h-2.813zm0-32.344h2.812c.469 1.406.469 2.344 0 2.813-.468.468-1.406.468-2.812 0V22.5zm-8.438 28.125h2.813v37.969h-2.813zm16.875 0h2.813v37.969h-2.813zM45 14.063a7.04 7.04 0 0 1-7.031-7.032A7.04 7.04 0 0 1 45 0a7.04 7.04 0 0 1 7.031 7.031A7.04 7.04 0 0 1 45 14.063zm0-11.25a4.224 4.224 0 0 0-4.219 4.218A4.224 4.224 0 0 0 45 11.25a4.224 4.224 0 0 0 4.219-4.219A4.224 4.224 0 0 0 45 2.813zM22.5 33.75H10.298l-3.167-7.914 2.613-1.047 2.458 6.148H22.5z"/><path d="M28.125 40.781H17.329l-3.167-7.914 2.613-1.046 2.458 6.148h8.892z"/><path d="M30.938 47.813H24.36l-3.166-7.915 2.612-1.046L26.265 45h4.673z"/><path d="M56.25 52.031h-22.5v-22.5a2.815 2.815 0 0 0-2.813-2.812H3.35L0 20.019v-3.144h90v3.144l-3.35 6.7H59.062a2.815 2.815 0 0 0-2.812 2.812v22.5zM36.562 49.22h16.876V29.53a5.63 5.63 0 0 1 5.624-5.625h25.85l2.11-4.218H2.978l2.11 4.218h25.85a5.63 5.63 0 0 1 5.625 5.625v19.69z"/><path d="M79.702 33.75H67.5v-2.813h10.298l2.458-6.148 2.613 1.047z"/><path d="M72.67 40.781H61.876V37.97h8.892l2.458-6.148 2.613 1.046z"/><path d="M65.64 47.813h-6.577V45h4.672l2.459-6.148 2.612 1.046zM0 87.188h90v2.813H0z"/></g></svg>