<svg width="90" height="90" xmlns="http://www.w3.org/2000/svg"><path d="M71.719 59.063h-5.625V56.25h5.625c8.529 0 15.469-6.94 15.469-15.469 0-8.017-5.441-14.062-12.657-14.062h-1.406v-1.407c0-5.437-2.956-11.25-11.25-11.25H59.64l-.4-.725C55.588 6.747 48.689 2.813 40.78 2.813c-11.63 0-21.093 9.462-21.093 21.093v1.407H18.28c-8.529 0-15.468 6.94-15.468 15.468 0 8.53 6.94 15.469 15.468 15.469h5.625v2.813H18.28C8.201 59.063 0 50.86 0 40.78c0-9.62 7.47-17.529 16.913-18.23C17.617 9.996 28.053 0 40.781 0c8.653 0 16.252 4.19 20.5 11.25h.594c8.085 0 13.462 4.944 14.015 12.714C84.023 24.668 90 31.662 90 40.78c0 10.08-8.201 18.282-18.281 18.282z"/><path d="M57.656 61.875H32.344V36.562h25.312v25.313zm-22.5-2.813h19.688V39.376H35.156v19.688z"/><path d="M35.156 30.938h2.813v7.031h-2.813zm5.625 0h2.813v7.031h-2.813zm5.625 0h2.813v7.031h-2.813zm5.625 0h2.813v7.031h-2.813zm-11.25 29.531h2.813V90h-2.813zm5.625 0h2.813V90h-2.813zm9.844-21.094h7.031v2.813H56.25zm0 5.625h7.031v2.813H56.25zm0 5.625h7.031v2.813H56.25zm0 5.625h7.031v2.813H56.25zM26.719 39.375h7.031v2.813h-7.031zm0 5.625h7.031v2.813h-7.031zm0 5.625h7.031v2.813h-7.031zm0 5.625h7.031v2.813h-7.031zm22.5-2.812H40.78V45h8.438v8.438zm-5.625-2.813h2.812v-2.813h-2.812v2.813zm-5.625 25.313H0v-2.813h35.156V60.469h2.813zm52.031 0H52.031v-15.47h2.813v12.657H90zM35.156 25.313h2.813v2.813h-2.813zm5.625 0h2.813v2.813h-2.813zm0-5.625h2.813v2.813h-2.813zm5.625 0h2.813v2.813h-2.813zm0 5.625h2.813v2.813h-2.813zm5.625 0h2.813v2.813h-2.813zM21.094 39.375h2.813v2.813h-2.813zm-5.625 0h2.813v2.813h-2.813zM21.094 45h2.813v2.813h-2.813zm-5.625 0h2.813v2.813h-2.813zm5.625 5.625h2.813v2.813h-2.813zm-11.25-11.25h2.813v2.813H9.844zm56.25 0h2.813v2.813h-2.813zm5.625 0h2.813v2.813h-2.813zM66.094 45h2.813v2.813h-2.813zm5.625 0h2.813v2.813h-2.813zm-5.625 5.625h2.813v2.813h-2.813zm11.25-11.25h2.813v2.813h-2.813z"/></svg>