<svg width="91" height="90" xmlns="http://www.w3.org/2000/svg" fill="#ffffff"><path d="M66.668 81.563h22.5v2.813h-22.5z"/><path d="M83.542 90a1.405 1.405 0 0 1-.994-2.4l4.63-4.631-4.63-4.631a1.405 1.405 0 0 1 0-1.988c.55-.55 1.439-.55 1.988 0l5.625 5.625c.55.55.55 1.438 0 1.988l-5.625 5.625a1.402 1.402 0 0 1-.994.412zM51.199 14.063c-.36 0-.72-.138-.995-.413L44.58 8.025a1.405 1.405 0 0 1 0-1.988L50.204.412c.55-.55 1.439-.55 1.989 0s.55 1.439 0 1.988l-4.631 4.631 4.63 4.631a1.405 1.405 0 0 1-.993 2.4z"/><path d="M45.574 84.375h-45v-2.813h45c20.16 0 36.562-16.4 36.562-36.562 0-20.161-16.402-36.563-36.562-36.563V5.626c21.71 0 39.375 17.664 39.375 39.375S67.285 84.375 45.574 84.375z"/><path d="M25.162 78.678C13.287 71.466 6.199 58.875 6.199 45c0-18.998 13.539-35.283 32.193-38.721l.509 2.766C21.58 12.237 9.01 27.359 9.01 45c0 12.885 6.584 24.577 17.61 31.275l-1.46 2.403zm20.412-30.865c-4.81 0-8.438-4.536-8.438-10.547 0-4.256.96-9.141 8.438-9.141 7.478 0 8.437 4.885 8.437 9.14 0 6.012-3.628 10.547-8.437 10.547zm0-16.876c-4.259 0-5.625 1.539-5.625 6.329 0 3.749 1.971 7.734 5.625 7.734 3.653 0 5.625-3.985 5.625-7.734 0-4.79-1.367-6.328-5.625-6.328z"/><path d="M56.824 59.063h-22.5c-2.287 0-4.22-2.577-4.22-5.626v-2.812c0-.503.27-.97.71-1.22l9.843-5.626 1.395 2.442-9.135 5.22v1.996c0 1.722.989 2.813 1.407 2.813h22.5c.417 0 1.406-1.091 1.406-2.813v-1.996l-9.135-5.22 1.395-2.442 9.844 5.625c.438.25.708.718.708 1.221v2.813c0 3.048-1.932 5.624-4.218 5.624z"/><path d="M45.574 73.125c-15.509 0-28.125-12.617-28.125-28.125s12.616-28.125 28.125-28.125c15.508 0 28.125 12.617 28.125 28.125S61.082 73.125 45.574 73.125zm0-53.438C31.616 19.688 20.26 31.044 20.26 45c0 13.957 11.355 25.313 25.313 25.313 13.957 0 25.312-11.356 25.312-25.313 0-13.957-11.355-25.313-25.312-25.313z"/></svg>