<?xml version="1.0" encoding="UTF-8"?>
<svg width="22px" height="22px" viewBox="0 0 22 22" version="1.1" xmlns="http://www.w3.org/2000/svg" xmlns:xlink="http://www.w3.org/1999/xlink">
    <!-- Generator: Sketch 47.1 (45422) - http://www.bohemiancoding.com/sketch -->
    <title>icon-arrow-white</title>
    <desc>Created with Sketch.</desc>
    <defs></defs>
    <g id="Symbols" stroke="none" stroke-width="1" fill="none" fill-rule="evenodd">
        <g id="icon-arrow-white" stroke="#FFFFFF">
            <g id="arrow" transform="translate(1.000000, 1.000000)">
                <path d="M10,19.4444444 C4.79222222,19.4444444 0.555555556,15.2077778 0.555555556,10 C0.555555556,4.79222222 4.79222222,0.555555556 10,0.555555556 C15.2077778,0.555555556 19.4444444,4.79222222 19.4444444,10 C19.4444444,15.2077778 15.2077778,19.4444444 10,19.4444444 M10,0 C4.48583333,0 0,4.48583333 0,10 C0,15.5141667 4.48583333,20 10,20 C15.5141667,20 20,15.5141667 20,10 C20,4.48583333 15.5141667,0 10,0" id="Fill-1" fill="#FFFFFF"></path>
                <path d="M9.69354057,11.4051788 L6.4298943,8.2112798 C6.3314385,8.11518192 6.17204585,8.11518192 6.07384185,8.2112798 C5.97538605,8.30762407 5.97538605,8.46359831 6.07384185,8.55994259 L9.51551434,11.9278034 C9.56461634,11.9758523 9.62907846,12 9.69354057,12 C9.75800268,12 9.82246479,11.9758523 9.87156679,11.9278034 L13.9261581,8.42067459 C14.024614,8.32433032 14.024614,8.16860248 13.9261581,8.07225821 C13.8277023,7.97591393 13.6685615,7.97591393 13.5701057,8.07225821 L9.69354057,11.4051788 Z" id="Fill-3" transform="translate(10.000000, 10.000000) rotate(-90.000000) translate(-10.000000, -10.000000) "></path>
            </g>
        </g>
    </g>
</svg>