<svg width="76" height="80" xmlns="http://www.w3.org/2000/svg"><g stroke-width="2" stroke="#FFF" fill="none" fill-rule="evenodd" stroke-linejoin="round"><path d="M15.2 49.523v29.206m0-59.683v2.54M7.6 52.062V78.73m15.2-33.017v33.016"/><ellipse cx="15.2" cy="5.079" rx="5.067" ry="5.079"/><path d="M7.6 40.634h12.667M38 49.523v29.206m0-59.683v2.54m0 2.54v2.54m7.6 19.047v33.016M30.4 45.713v33.016"/><ellipse cx="38" cy="5.079" rx="5.067" ry="5.079"/><path d="M46.867 40.634H29.133M7.6 45.713h16.467V25.397a3.806 3.806 0 0 1 3.8-3.811M60.8 49.523v29.206m0-59.683v2.54m7.6 30.476V78.73M53.2 45.713v33.016"/><ellipse cx="60.8" cy="5.079" rx="5.067" ry="5.079"/><path d="M68.4 40.634H55.733M68.4 25.396v22.857h6.333V20.317c0-2.805-2.268-5.08-5.066-5.08H6.333c-2.798 0-5.066 2.275-5.066 5.08v27.936H7.6V25.396"/><path d="M68.4 45.713H51.933V25.397a3.806 3.806 0 0 0-3.8-3.811"/><path d="M24.067 26.665h1.266c2.098 0 3.8 1.707 3.8 3.811v15.237h17.734V30.476a3.806 3.806 0 0 1 3.8-3.81h1.266M0 78.729h76"/></g></svg>