<?xml version="1.0" encoding="UTF-8"?>
<svg width="90px" height="90px" viewBox="0 0 90 90" version="1.1" xmlns="http://www.w3.org/2000/svg" xmlns:xlink="http://www.w3.org/1999/xlink">
    <g id="Page-2" stroke="none" stroke-width="1" fill="#ffffff" fill-rule="evenodd">
        <path d="M73.125,37.2242647 C72.8929687,37.2242647 72.6595313,37.1632169 72.4485938,37.0396324 C71.9985937,36.7790625 71.71875,36.2787684 71.71875,35.7352941 L71.71875,32.755864 L45,32.755864 L45,29.7779228 L73.125,29.7779228 C73.9026562,29.7779228 74.53125,30.4449816 74.53125,31.2668934 L74.53125,33.0223897 L85.9753125,25.3125 L74.53125,17.6026103 L74.53125,19.3566176 C74.53125,20.1785294 73.9026562,20.8455882 73.125,20.8455882 L56.25,20.8455882 L56.25,17.8676471 L71.71875,17.8676471 L71.71875,14.8897059 C71.71875,14.3462316 71.9985937,13.8459375 72.4485938,13.5853676 C72.8985938,13.3233088 73.4470312,13.3411765 73.8815625,13.6345037 L89.3503125,24.0572978 C89.7539062,24.3297794 90,24.8032721 90,25.3125 C90,25.8217279 89.7539062,26.2952206 89.3489062,26.5691912 L73.8801562,36.9919853 C73.6495312,37.1468382 73.3879687,37.2242647 73.125,37.2242647 Z" id="Shape" fill-rule="nonzero" fill="#ffffff"></path>
    </g>
</svg>