<?xml version="1.0" encoding="UTF-8"?>
<svg width="90px" height="90px" viewBox="0 0 90 90" version="1.1" xmlns="http://www.w3.org/2000/svg" xmlns:xlink="http://www.w3.org/1999/xlink">
    <g id="Page-2" stroke="none" stroke-width="1" fill="#ffffff" fill-rule="evenodd">
        <path d="M73.125,37.2242647 C72.8929687,37.2242647 72.6595313,37.1632169 72.4485938,37.0396324 C71.9985937,36.7790625 71.71875,36.2787684 71.71875,35.7352941 L71.71875,32.755864 L45,32.755864 L45,29.7779228 L73.125,29.7779228 C73.9026562,29.7779228 74.53125,30.4449816 74.53125,31.2668934 L74.53125,33.0223897 L85.9753125,25.3125 L74.53125,17.6026103 L74.53125,19.3566176 C74.53125,20.1785294 73.9026562,20.8455882 73.125,20.8455882 L56.25,20.8455882 L56.25,17.8676471 L71.71875,17.8676471 L71.71875,14.8897059 C71.71875,14.3462316 71.9985937,13.8459375 72.4485938,13.5853676 C72.8985938,13.3233088 73.4470312,13.3411765 73.8815625,13.6345037 L89.3503125,24.0572978 C89.7539062,24.3297794 90,24.8032721 90,25.3125 C90,25.8217279 89.7539062,26.2952206 89.3489062,26.5691912 L73.8801562,36.9919853 C73.6495312,37.1468382 73.3879687,37.2242647 73.125,37.2242647 Z" id="Shape" fill-rule="nonzero" fill="#ffffff"></path>
            <rect id="Rectangle-path" x="14.0625" y="56.5793934" width="2.8125" height="32.7573529"></rect>
            <rect id="Rectangle-path" x="14.0625" y="23.8235294" width="2.8125" height="2.97794118"></rect>
            <rect id="Rectangle-path" x="7.03125" y="50.623511" width="12.65625" height="2.97794118"></rect>
            <rect id="Rectangle-path" x="5.625" y="55.0904228" width="2.8125" height="34.2463235"></rect>
            <path d="M8.4375,56.5793934 L0,56.5793934 L0,25.3125 C0,21.2074081 3.15421875,17.8661581 7.03125,17.8661581 L53.4375,17.8661581 L53.4375,20.8440993 L7.03125,20.8440993 C4.7053125,20.8440993 2.8125,22.8497426 2.8125,25.3125 L2.8125,53.6014522 L5.625,53.6014522 L5.625,29.7779228 L8.4375,29.7779228 L8.4375,56.5793934 Z" id="Shape"></path>
            <path d="M25.3125,89.3367463 L22.5,89.3367463 L22.5,31.2683824 C22.5,27.1632904 25.6542187,23.8220404 29.53125,23.8220404 L68.90625,23.8220404 L68.90625,26.7999816 L29.53125,26.7999816 C27.2053125,26.7999816 25.3125,28.805625 25.3125,31.2683824 L25.3125,89.3367463 Z" id="Shape"></path>
            <path d="M15.46875,14.8897059 C11.5917188,14.8897059 8.4375,11.5499449 8.4375,7.44485294 C8.4375,3.33976103 11.5917188,0 15.46875,0 C19.3457813,0 22.5,3.33976103 22.5,7.44485294 C22.5,11.5499449 19.3457813,14.8897059 15.46875,14.8897059 Z M15.46875,2.97794118 C13.1428125,2.97794118 11.25,4.98209559 11.25,7.44485294 C11.25,9.90761029 13.1428125,11.9117647 15.46875,11.9117647 C17.7946875,11.9117647 19.6875,9.90761029 19.6875,7.44485294 C19.6875,4.98209559 17.7946875,2.97794118 15.46875,2.97794118 Z" id="Shape"></path>
        <rect id="Rectangle-path" fill-rule="nonzero" x="71.71875" y="23.8220404" width="2.8125" height="7.44485294"></rect>
        <path d="M59.0625,62.5367647 C58.8304687,62.5367647 58.5970312,62.4757169 58.3860937,62.3521324 C57.9360937,62.0915625 57.65625,61.5912684 57.65625,61.0477941 L57.65625,58.068364 L28.125,58.068364 L28.125,55.0904228 L59.0625,55.0904228 C59.8401562,55.0904228 60.46875,55.7574816 60.46875,56.5793934 L60.46875,58.3348897 L71.9128125,50.625 L60.46875,42.9151103 L60.46875,44.6691176 C60.46875,45.4910294 59.8401562,46.1580882 59.0625,46.1580882 L28.125,46.1580882 L28.125,43.1801471 L57.65625,43.1801471 L57.65625,40.2022059 C57.65625,39.6587316 57.9360937,39.1584375 58.3860937,38.8978676 C58.8360937,38.6358088 59.383125,38.6551654 59.8190625,38.9470037 L75.2878125,49.3697978 C75.6914062,49.6422794 75.9375,50.1157721 75.9375,50.625 C75.9375,51.1342279 75.6914062,51.6077206 75.2864062,51.8816912 L59.8176562,62.3044853 C59.5870312,62.4593382 59.3254687,62.5367647 59.0625,62.5367647 Z" id="Shape" fill-rule="nonzero"></path>
        <rect id="Rectangle-path" fill-rule="nonzero" x="57.65625" y="49.1345404" width="2.8125" height="7.44485294"></rect>
        <path d="M45,87.8492647 C44.7679688,87.8492647 44.5345313,87.7882169 44.3235938,87.6646324 C43.8735938,87.4040625 43.59375,86.9037684 43.59375,86.3602941 L43.59375,83.380864 L28.125,83.380864 L28.125,80.4029228 L45,80.4029228 C45.7776562,80.4029228 46.40625,81.0699816 46.40625,81.8918934 L46.40625,83.6473897 L57.8503125,75.9375 L46.40625,68.2276103 L46.40625,69.9816176 C46.40625,70.8035294 45.7776562,71.4705882 45,71.4705882 L28.125,71.4705882 L28.125,68.4926471 L43.59375,68.4926471 L43.59375,65.5147059 C43.59375,64.9712316 43.8735938,64.4709375 44.3235938,64.2103676 C44.7735938,63.9483088 45.320625,63.9661765 45.7565625,64.2595037 L61.2253125,74.6822978 C61.6289062,74.9547794 61.875,75.4282721 61.875,75.9375 C61.875,76.4467279 61.6289062,76.9202206 61.2239062,77.1941912 L45.7551562,87.6169853 C45.5245312,87.7718382 45.2629687,87.8492647 45,87.8492647 Z" id="Shape" fill-rule="nonzero"></path>
        <rect id="Rectangle-path" fill-rule="nonzero" x="43.59375" y="74.4470404" width="2.8125" height="7.44485294"></rect>
        <rect id="Rectangle-path" fill-rule="nonzero" x="28.125" y="29.7794118" width="2.8125" height="2.97794118"></rect>
        <rect id="Rectangle-path" fill-rule="nonzero" x="33.75" y="29.7794118" width="2.8125" height="2.97794118"></rect>
        <rect id="Rectangle-path" fill-rule="nonzero" x="39.375" y="29.7794118" width="2.8125" height="2.97794118"></rect>
    </g>
</svg>