<svg width="19" height="16" xmlns="http://www.w3.org/2000/svg"><path d="M17.055 3.985c.007.173.011.348.011.523C17.066 9.846 13.146 16 5.976 16A10.76 10.76 0 0 1 0 14.186a7.649 7.649 0 0 0 5.771-1.673c-1.706-.033-3.145-1.2-3.64-2.806a3.785 3.785 0 0 0 1.759-.068C2.107 9.268.764 7.635.764 5.679v-.052a3.79 3.79 0 0 0 1.765.506A4.078 4.078 0 0 1 .796 2.77c0-.74.192-1.435.527-2.031 1.923 2.443 4.795 4.052 8.034 4.22a4.228 4.228 0 0 1-.1-.921C9.257 1.809 11 0 13.155 0A3.83 3.83 0 0 1 16 1.276a7.644 7.644 0 0 0 2.475-.98 4.025 4.025 0 0 1-1.714 2.234A7.556 7.556 0 0 0 19 1.895a8.091 8.091 0 0 1-1.945 2.09" fill="#F1F7FC" fill-rule="evenodd"/></svg>